<?xml version="1.0" encoding="iso-8859-1"?>
<!-- Generator: Adobe Illustrator 16.0.0, SVG Export Plug-In . SVG Version: 6.00 Build 0)  -->
<!DOCTYPE svg PUBLIC "-//W3C//DTD SVG 1.1//EN" "http://www.w3.org/Graphics/SVG/1.1/DTD/svg11.dtd">
<svg version="1.1" id="Capa_1" xmlns="http://www.w3.org/2000/svg" xmlns:xlink="http://www.w3.org/1999/xlink" x="0px" y="0px"
	 width="48px" height="48px" viewBox="0 0 48 48" style="enable-background:new 0 0 48 48;" xml:space="preserve">
<g>
	<path d="M43.741,8.741H30.607c-0.412-1.919-2.119-3.356-4.16-3.356H4.258C1.906,5.385,0,7.291,0,9.641v28.716
		c0,2.352,1.906,4.258,4.258,4.258h39.483c2.353,0,4.259-1.906,4.259-4.258V12.999C48,10.646,46.094,8.741,43.741,8.741z
		 M28.031,24.125c-0.446,2.005-2.356,4.223-4.457,6.145v3.369c0,0.863-0.7,1.563-1.565,1.563c-0.865,0-1.564-0.7-1.564-1.563v-0.775
		c-1.865,1.416-3.337,2.34-3.337,2.34s-0.795-0.5-1.959-1.326v2.788c0,0.69-0.56,1.251-1.251,1.251s-1.252-0.561-1.252-1.251v-4.681
		c-0.233-0.187-0.469-0.377-0.705-0.576v2.333c0,0.864-0.7,1.565-1.564,1.565c-0.864,0-1.565-0.701-1.565-1.565v-5.29
		c-1.3-1.432-2.32-2.932-2.631-4.325c-0.203-0.615-0.314-1.274-0.314-1.958c0-2.395,1.327-4.479,3.285-5.564
		c0.91-0.501,1.956-0.79,3.065-0.79c1.968,0,3.726,0.896,4.894,2.3c1.164-1.404,2.922-2.3,4.888-2.3c1.113,0,2.155,0.289,3.065,0.79
		c1.957,1.085,3.285,3.167,3.285,5.564C28.348,22.851,28.234,23.509,28.031,24.125z"/>
</g>
<g>
</g>
<g>
</g>
<g>
</g>
<g>
</g>
<g>
</g>
<g>
</g>
<g>
</g>
<g>
</g>
<g>
</g>
<g>
</g>
<g>
</g>
<g>
</g>
<g>
</g>
<g>
</g>
<g>
</g>
</svg>
