<?xml version="1.0" ?><svg viewBox="0 0 64 64" xmlns="http://www.w3.org/2000/svg"><title/><g data-name="Day 08" id="ddc4b863-4a68-4649-bb92-9247c74eee55"><polygon data-name="&lt;Path&gt;" fill="#c4a535" id="4e0fa243-8881-42b3-9bcb-f61fb7b5ab13" points="50 30 58 43 60 31 58 22 50 30" stroke="#001c63" stroke-linecap="round" stroke-linejoin="round" stroke-width="2"/><path d="M48,22h0a9.72,9.72,0,0,1,10,0h0l2,9-5-3-5,2Z" data-name="&lt;Path&gt;" fill="#ead285" id="c488b440-10d1-498c-adcb-3f372f47fcc4"/><path d="M48,22h0a9.72,9.72,0,0,1,10,0h0l2,9-5-3-5,2Z" data-name="&lt;Path&gt;" fill="none" id="a45a2ec7-8377-41d8-90e0-74579e33bae3" stroke="#001c63" stroke-linecap="round" stroke-linejoin="round" stroke-width="2"/><path d="M27,25.71l-8,10L21.29,41l-1,2-2-2L14,36.71l.71-6.41a10,10,0,0,1,1.81-4.72l.81-1.13a10,10,0,0,1,7.25-4.16l7.26,2.37.16.05.08.2,1.07,2.67L36,32.71Z" data-name="&lt;Path&gt;" fill="#edc74c" id="b18e6916-f7ef-4089-915b-6e8a7dcd7538"/><path d="M35,26l-1.85-.42L25,23.71l-8,10L18,39l.29,2L14,36.71l.71-6.41a10,10,0,0,1,1.81-4.72l.81-1.13a10,10,0,0,1,7.25-4.16l7.26,2.37.24.25Z" data-name="&lt;Path&gt;" fill="#ead285" id="cca3ba71-7792-4e5f-bf15-a1b57b20941a"/><path d="M32,22.71l-7.42-2.42a10,10,0,0,0-7.25,4.16l-.81,1.14a10,10,0,0,0-1.81,4.72L14,36.71,20.29,43l1-2L19,35.71l8-10,9,7Z" data-name="&lt;Path&gt;" fill="none" id="a3473af5-8197-4c68-9e2c-2971adb0b4ab" stroke="#001c63" stroke-linecap="round" stroke-linejoin="round" stroke-width="2"/><path d="M50,35.13c0,.56,0,.87,0,.87l-.8.12L37,38l-3-8-2.8-8.48L29.06,15a6.76,6.76,0,0,1,2-6.78A5.39,5.39,0,0,1,35,6.48C40.09,6.48,45,14,45,14a28,28,0,0,1,3.73,8.69A46.52,46.52,0,0,1,50,35.13Z" data-name="&lt;Path&gt;" fill="#eae2c7" id="6c1d14a1-3dbc-43f3-969b-91c0d547896a"/><path d="M50,35.13c-.3.34-.57.67-.84,1L37,38l-3-8-2.8-8.48c1.78,3,3.69,5.81,4.8,6.48,2.5,1.5,8.08,3.08,10,1,1-1,2-3.81,2.73-6.31A46.52,46.52,0,0,1,50,35.13Z" data-name="&lt;Path&gt;" fill="#ead89a" id="91125645-da48-4dde-93d3-31e6ac028109"/><path d="M51,36S40.88,53,31,56,5,56,5,56l.49-2.47L6,51s3.5-.88,13-5c7.23-3.14,11.54-11.28,13.2-15,.54-1.2.8-2,.8-2l2.57,5.78L37,38l8.52-1.22Z" data-name="&lt;Path&gt;" fill="#e8c02e" id="7b88e319-b903-425f-83a1-8afb82f663ae"/><path d="M48,33s-.92,1.54-2.48,3.78C41.93,42,34.9,50.9,28,53s-17.22,1.23-22.51.53L6,51s3.5-.88,13-5c7.23-3.14,12.34-13.24,14-17l2,5,2,4Z" data-name="&lt;Path&gt;" fill="#ffda52" id="6b990985-831c-4d99-a155-8524ae4dde51"/><circle cx="29.5" cy="37.5" data-name="&lt;Path&gt;" fill="#e8c02e" id="480ada77-c6ea-4cb8-ae13-cbb1e2dba92d" r="1.5"/><circle cx="33.5" cy="33.5" data-name="&lt;Path&gt;" fill="#e8c02e" id="89d7df93-6fda-4527-9dbe-4924e41f634a" r="2.5"/><path d="M33,29S28.54,41.86,19,46,6,51,6,51L5,56s16.13,3,26,0S51,36,51,36L37,38Z" data-name="&lt;Path&gt;" fill="none" id="d656cb67-f168-413e-9673-073a6eea9351" stroke="#001c63" stroke-linecap="round" stroke-linejoin="round" stroke-width="2"/><path d="M34,30,29.06,15a6.78,6.78,0,0,1,2.05-6.79h0C37.24,2.11,45,14,45,14c6,8.88,5,22,5,22L37,38Z" data-name="&lt;Path&gt;" fill="none" id="569c266d-54a3-4da7-958f-88c1239eea92" stroke="#001c63" stroke-linecap="round" stroke-linejoin="round" stroke-width="2"/><path d="M59.37,48.72l-.86,7.46a3.43,3.43,0,0,1-2.93,3.13A3.12,3.12,0,0,1,53.74,59l-.53-4.65a19.07,19.07,0,0,0-2.87-8.1L50.17,46c-3-4.67-7.92-8-13.17-8l3-3c3.38-1.75,6.83-1.35,7.58-3L50,30l0,0c1.85.18,4.89,3.19,7.33,7.74A18.81,18.81,0,0,1,59.37,48.72Z" data-name="&lt;Path&gt;" fill="#ead285" id="c4a95c78-c99a-47cd-9b7d-1a22c3bb72ae"/><path d="M56,56a10.41,10.41,0,0,1-.42,3.31A3.12,3.12,0,0,1,53.74,59l-.53-4.65a19.07,19.07,0,0,0-2.87-8.1L50.17,46c-3-4.67-7.92-8-13.17-8l3-3c3.38-1.75,6.83-1.35,7.58-3L50,30c1.63,1,3,2,3,2h0a8.53,8.53,0,0,1-6.43,4.63l-1.05.15L53,45A26.48,26.48,0,0,1,56,56Z" data-name="&lt;Path&gt;" fill="#e8c02e" id="821f60e7-d33e-4433-98c4-f90b1b407224"/><circle cx="41.5" cy="42.5" data-name="&lt;Path&gt;" fill="#e8c02e" id="3d3c62ea-f737-41e6-8c5f-5b0d0f70a59f" r="2.5"/><circle cx="36.5" cy="43.5" data-name="&lt;Path&gt;" fill="#e8c02e" id="da247696-24fc-4574-ba04-d01e5cac323a" r="1.5"/><circle cx="36.5" cy="48.5" data-name="&lt;Path&gt;" fill="#e8c02e" id="278d8405-2831-4c7a-a3d3-64e2ee82306c" r="1.5"/><circle cx="40.5" cy="39.5" data-name="&lt;Path&gt;" fill="#e8c02e" id="74e34d1c-7cfb-4173-951c-14f1956ca59d" r="1.5"/><path d="M47.58,32,50,30c1.85.18,4.89,3.19,7.33,7.74a18.79,18.79,0,0,1,2,11l-.86,7.47A3.29,3.29,0,0,1,53.74,59h0l-.54-4.65a19,19,0,0,0-2.87-8.1l-.16-.25C47.16,41.28,42.25,38,37,38l3-3C43.38,33.25,46.83,33.65,47.58,32Z" data-name="&lt;Path&gt;" fill="none" id="78d595f1-21b6-4d7a-8801-f6669db89864" stroke="#001c63" stroke-linecap="round" stroke-linejoin="round" stroke-width="2"/><path d="M17,51c3.29-1.08,7.45-3,10-6" data-name="&lt;Path&gt;" fill="none" id="755a1fd2-a07b-4c37-afe3-a21999088224" stroke="#fff" stroke-linecap="round" stroke-linejoin="round" stroke-width="2"/><circle cx="14" cy="52" data-name="&lt;Path&gt;" fill="#fff" id="edf6fce0-8ec9-4b76-b8e5-fea8f0a3019f" r="1"/><path d="M40.75,22.65a1.5,1.5,0,0,1-2.81,1" data-name="&lt;Path&gt;" fill="none" id="d5ea02bf-259c-4807-8427-51642cda745d" stroke="#001c63" stroke-linecap="round" stroke-linejoin="round"/><ellipse cx="34.67" cy="20.64" data-name="&lt;Path&gt;" fill="#001c63" id="e79c1ee1-1884-4bb2-b4dc-077e3646b735" rx="1" ry="1.5" transform="translate(-5.02 13.36) rotate(-20.38)"/><ellipse cx="39.94" cy="17.61" data-name="&lt;Path&gt;" fill="#001c63" id="1c7bf159-d031-46fb-9cee-4bce991bf5a3" rx="1" ry="1.5" transform="translate(-3.63 15.01) rotate(-20.38)"/><path d="M33,11a3.57,3.57,0,0,1,1-1" data-name="&lt;Path&gt;" fill="none" id="1d7b86c1-4620-4fbf-9dd6-0ae2d44d3539" stroke="#fff" stroke-linecap="round" stroke-linejoin="round" stroke-width="2"/><circle cx="47" cy="38" data-name="&lt;Path&gt;" fill="#e8c02e" id="7947e152-8305-4bc7-8120-42a480c8813c" r="2"/><circle cx="50.5" cy="39.5" data-name="&lt;Path&gt;" fill="#e8c02e" id="e9a14f2c-ef08-42e2-9e30-84aed74781e1" r="1.5"/><circle cx="51.5" cy="34.5" data-name="&lt;Path&gt;" fill="#e8c02e" id="cd6a3e79-8c3e-4e25-a837-462f0533defa" r="1.5"/><circle cx="45" cy="30" data-name="&lt;Path&gt;" fill="#ead89a" id="a957a88e-c47d-4563-8c24-43b93be16bbc" r="2"/><circle cx="39.5" cy="29.5" data-name="&lt;Path&gt;" fill="#ead89a" id="a34e30ac-2235-4884-b1d2-f4115d15f072" r="1.5"/><circle cx="45" cy="23" data-name="&lt;Path&gt;" fill="#ead89a" id="b9155a6f-033f-4b0a-a947-1c9610d7afb9" r="1"/><circle cx="47" cy="27" data-name="&lt;Path&gt;" fill="#ead89a" id="c28d1859-c069-49c5-9445-b15a7fb0e3ac" r="1"/></g></svg>