<?xml version="1.0" ?><svg enable-background="new 0 0 64 64" id="Filled_Outline_1_" version="1.1" viewBox="0 0 64 64" xml:space="preserve" xmlns="http://www.w3.org/2000/svg" xmlns:xlink="http://www.w3.org/1999/xlink"><title/><desc/><g><g><path d="M21.33,57.12c-1,0.35-2.01,0.66-3.02,0.9C16.24,55.58,15,52.43,15,49c0-4.38,2.01-8.28,5.16-10.84    C18.18,40.57,17,43.65,17,47C17,50.98,18.66,54.57,21.33,57.12z" fill="#603F96"/><path d="M54,35c-2.129-1.419-4.263-1.831-11.038-1.951C42.98,32.701,43,32.353,43,32c0-16-2-19-4-22    c0-1,2-3.131,2-7c-2,2-4.131,2-8,2C19.734,5,11,17.076,11,32c0,15-1,19-4,22c-0.707,0.707-4,3.131-4,7c2-2,4.131-2,8-2    c3.238,0,6.802-0.66,10.34-1.883C23.853,59.517,27.25,61,31,61h1c14.92,0,27-6.73,27-20c0-3.87,0-6,2-8C57.13,33,55,35,54,35z" fill="#603F96"/><path d="M37.54,39.44C37.84,40.57,38,41.77,38,43c0,6.41-4.31,11.82-10.2,13.47C23.85,55.14,21,51.4,21,47    c0-5.52,4.48-10,10-10C33.5,37,35.79,37.92,37.54,39.44z" fill="#705CB2"/><path d="M43,32c0,0.35-0.01,0.7-0.03,1.05c-1.34-0.02-2.86-0.04-4.6-0.04C38.78,31.41,39,29.73,39,28    c0-16-2-19-4-22c0-0.26,0.13-0.6,0.33-1.02C37.8,4.9,39.44,4.56,41,3c0,3.87-2,6-2,7C41,13,43,16,43,32z M17,47    c0-3.35,1.18-6.43,3.16-8.84C17.01,40.72,15,44.62,15,49c0,1.62,0.28,3.18,0.79,4.62C12.77,54.52,9.77,55,7,55    c-0.38,0-0.74,0-1.09,0.01C4.7,56.19,3,58.22,3,61c2-2,4.13-2,8-2c2.31,0,4.79-0.33,7.31-0.98c0.15-0.03,0.29-0.07,0.44-0.11    c0.41-0.11,0.83-0.23,1.25-0.36c0.44-0.13,0.89-0.28,1.33-0.43C18.66,54.57,17,50.98,17,47z M42.67,54.73    C44.14,52.52,45,49.86,45,47c0-6.65-4.64-12.22-10.86-13.64c1.61,1.68,2.79,3.76,3.4,6.08C39.66,41.27,41,43.98,41,47    c0,5.52-4.48,10-10,10c-1.12,0-2.2-0.18-3.2-0.53C26.59,56.82,25.32,57,24,57c-1.08,0-2.13-0.12-3.14-0.36    C23.4,59.33,27.01,61,31,61c0.34,0,0.67-0.01,1-0.04V61c14.52,0,26.35-6.37,26.97-18.94C56.63,48.54,50.44,52.78,42.67,54.73z" fill="#3E2F6F"/></g><path d="M19.264,58.812c-0.9,0.247-1.787,0.441-2.666,0.612l-0.001,0.002c-0.001,0-0.001-0.001-0.002-0.001   C14.666,59.797,12.79,60,11,60c-3.719,0-5.586,0-7.293,1.707C3.516,61.898,3.26,62,3,62c-0.129,0-0.259-0.024-0.383-0.076   C2.244,61.77,2,61.404,2,61c0-3.849,2.785-6.348,3.974-7.414c0.133-0.12,0.243-0.217,0.319-0.293C8.907,50.679,10,47.143,10,32   c0-16.225,9.673-28,23-28c3.719,0,5.586,0,7.293-1.707c0.286-0.286,0.715-0.373,1.09-0.217C41.756,2.23,42,2.596,42,3   c0,2.796-0.947,4.735-1.573,6.019c-0.127,0.261-0.276,0.565-0.361,0.779c1.887,2.852,3.764,6.214,3.922,20.19l-2,0.023   c-0.005-0.47-0.013-0.925-0.022-1.371C40.016,29.374,36.722,30,32,30v-2c5.215,0,8.545-0.811,9.905-1.493   c-0.167-4.453-0.545-7.515-1.045-9.745C39.162,17.439,36.422,18,32,18v-2c4.591,0,7.05-0.631,8.332-1.188   c-0.646-1.976-1.41-3.127-2.164-4.258C38.059,10.391,38,10.197,38,10c0-0.568,0.264-1.109,0.63-1.858   c0.384-0.787,0.863-1.768,1.141-3.021C37.977,6,35.907,6,33,6c-8.732,0-15.746,5.632-19.01,14.38C15.33,21.034,17.751,22,22,22v2   c-4.453,0-7.109-0.98-8.644-1.706C12.478,25.253,12,28.514,12,32c0,0.826-0.003,1.615-0.009,2.379   c1.005,0.492,2.614,1.16,5.128,1.459l-0.237,1.986c-2.208-0.263-3.791-0.782-4.918-1.26c-0.195,11.092-1.23,15.116-4.256,18.143   c-0.095,0.095-0.23,0.218-0.397,0.367c-0.78,0.699-2.171,1.948-2.875,3.71C6.182,58,8.203,58,11,58   c0.986,0,2.007-0.078,3.045-0.202c-0.842-0.723-1.536-1.544-1.94-2.351l1.789-0.895c0.498,0.998,1.679,2.086,2.979,2.781   c0.615-0.133,1.235-0.28,1.862-0.452L19.264,58.812z M30,16h-2v2h2V16z M28,30h2v-2h-2V30z M61.707,33.707   C60,35.414,60,37.281,60,41c0,6.605-2.952,11.995-8.154,15.662c-0.002,0.003-0.004,0.006-0.006,0.01l-0.004-0.003   C46.991,60.081,40.197,62,32,62h-1c-8.271,0-15-6.729-15-15s6.729-15,15-15c15.755,0,20.068,0,23.197,1.938   c0.208-0.084,0.52-0.235,0.784-0.364C56.265,32.946,58.204,32,61,32c0.404,0,0.769,0.243,0.924,0.617S61.993,33.421,61.707,33.707z    M31,60c7.168,0,13-5.832,13-13s-5.832-13-13-13s-13,5.832-13,13S23.832,60,31,60z M58.88,34.229   c-1.254,0.278-2.234,0.757-3.021,1.141C55.109,35.736,54.568,36,54,36c-0.197,0-0.391-0.059-0.555-0.168   c-1.514-1.01-3.369-1.462-7.376-1.666C47.666,35.634,49,37.56,49,39h-2c0-1.253-2.919-4.491-4.727-4.951   c-1.14-0.019-2.401-0.031-3.803-0.038C42.962,36.605,46,41.449,46,47c0,5.138-2.598,9.677-6.548,12.381   c4.317-0.754,8.01-2.183,10.938-4.184C51.413,53.441,52,51.215,52,49h2c0,1.177-0.144,2.339-0.406,3.454   C56.436,49.393,58,45.51,58,41C58,38.093,58,36.023,58.88,34.229z M52,47h2v-2h-2V47z M38.201,41.6l1.599-1.201   c-0.625-0.833-1.365-1.572-2.198-2.199l-1.202,1.6C37.082,40.312,37.688,40.918,38.201,41.6z M41.084,42.6L39.251,43.4   C39.748,44.537,40,45.748,40,47c0,4.963-4.038,9-9,9s-9-4.037-9-9s4.038-9,9-9c1.252,0,2.463,0.252,3.6,0.748l0.801-1.832   C34.01,36.308,32.529,36,31,36c-6.065,0-11,4.935-11,11s4.935,11,11,11s11-4.935,11-11C42,45.471,41.692,43.99,41.084,42.6z" fill="#28284B"/></g></svg>